<mxfile host="65bd71144e">
    <diagram id="VPepOx6_V2QdFUAZlpiM" name="Page-1">
        <mxGraphModel dx="-630" dy="296" grid="1" gridSize="10" guides="1" tooltips="1" connect="1" arrows="1" fold="1" page="1" pageScale="1" pageWidth="1100" pageHeight="850" math="0" shadow="0">
            <root>
                <mxCell id="0"/>
                <mxCell id="1" parent="0"/>
                <mxCell id="4MRAGSxwXnK8n_5N7Id2-97" value="0" style="rounded=0;whiteSpace=wrap;html=1;fontSize=19;fontColor=#000000;strokeColor=#000000;strokeWidth=2;fillColor=#FF0000;gradientColor=none;fontStyle=1" parent="1" vertex="1">
                    <mxGeometry x="1382.8699999999997" y="89.5" width="20" height="20" as="geometry"/>
                </mxCell>
                <mxCell id="4MRAGSxwXnK8n_5N7Id2-107" value="1" style="rounded=0;whiteSpace=wrap;html=1;fontSize=19;fontColor=#000000;strokeColor=#000000;strokeWidth=2;fillColor=#FF0000;gradientColor=none;fontStyle=1" parent="1" vertex="1">
                    <mxGeometry x="1382.8699999999997" y="109.5" width="20" height="20" as="geometry"/>
                </mxCell>
                <mxCell id="4MRAGSxwXnK8n_5N7Id2-109" value="2" style="rounded=0;whiteSpace=wrap;html=1;fontSize=19;fontColor=#000000;strokeColor=#000000;strokeWidth=2;fillColor=#FF0000;gradientColor=none;fontStyle=1" parent="1" vertex="1">
                    <mxGeometry x="1382.8699999999997" y="129.5" width="20" height="20" as="geometry"/>
                </mxCell>
                <mxCell id="4MRAGSxwXnK8n_5N7Id2-110" value="3" style="rounded=0;whiteSpace=wrap;html=1;fontSize=19;fontColor=#000000;strokeColor=#000000;strokeWidth=2;fillColor=#FF0000;gradientColor=none;fontStyle=1" parent="1" vertex="1">
                    <mxGeometry x="1382.8699999999997" y="149.5" width="20" height="20" as="geometry"/>
                </mxCell>
                <mxCell id="4MRAGSxwXnK8n_5N7Id2-113" value="0" style="rounded=0;whiteSpace=wrap;html=1;fontSize=19;fontColor=#000000;strokeColor=#000000;strokeWidth=2;fillColor=#00FF00;gradientColor=none;fontStyle=1" parent="1" vertex="1">
                    <mxGeometry x="1402.8699999999997" y="89.5" width="20" height="20" as="geometry"/>
                </mxCell>
                <mxCell id="4MRAGSxwXnK8n_5N7Id2-123" value="1" style="rounded=0;whiteSpace=wrap;html=1;fontSize=19;fontColor=#000000;strokeColor=#000000;strokeWidth=2;fillColor=#00FF00;gradientColor=none;fontStyle=1" parent="1" vertex="1">
                    <mxGeometry x="1402.8699999999997" y="109.5" width="20" height="20" as="geometry"/>
                </mxCell>
                <mxCell id="4MRAGSxwXnK8n_5N7Id2-125" value="2" style="rounded=0;whiteSpace=wrap;html=1;fontSize=19;fontColor=#000000;strokeColor=#000000;strokeWidth=2;fillColor=#00FF00;gradientColor=none;fontStyle=1" parent="1" vertex="1">
                    <mxGeometry x="1402.8699999999997" y="129.5" width="20" height="20" as="geometry"/>
                </mxCell>
                <mxCell id="4MRAGSxwXnK8n_5N7Id2-126" value="3" style="rounded=0;whiteSpace=wrap;html=1;fontSize=19;fontColor=#000000;strokeColor=#000000;strokeWidth=2;fillColor=#00FF00;gradientColor=none;fontStyle=1" parent="1" vertex="1">
                    <mxGeometry x="1402.8699999999997" y="149.5" width="20" height="20" as="geometry"/>
                </mxCell>
                <mxCell id="4MRAGSxwXnK8n_5N7Id2-129" value="0" style="rounded=0;whiteSpace=wrap;html=1;fontSize=19;fontColor=#000000;strokeColor=#000000;strokeWidth=2;fillColor=#0000FF;gradientColor=none;fontStyle=1" parent="1" vertex="1">
                    <mxGeometry x="1422.8699999999997" y="89.5" width="20" height="20" as="geometry"/>
                </mxCell>
                <mxCell id="4MRAGSxwXnK8n_5N7Id2-139" value="1" style="rounded=0;whiteSpace=wrap;html=1;fontSize=19;fontColor=#000000;strokeColor=#000000;strokeWidth=2;fillColor=#0000FF;gradientColor=none;fontStyle=1" parent="1" vertex="1">
                    <mxGeometry x="1422.8699999999997" y="109.5" width="20" height="20" as="geometry"/>
                </mxCell>
                <mxCell id="4MRAGSxwXnK8n_5N7Id2-141" value="2" style="rounded=0;whiteSpace=wrap;html=1;fontSize=19;fontColor=#000000;strokeColor=#000000;strokeWidth=2;fillColor=#0000FF;gradientColor=none;fontStyle=1" parent="1" vertex="1">
                    <mxGeometry x="1422.8699999999997" y="129.5" width="20" height="20" as="geometry"/>
                </mxCell>
                <mxCell id="4MRAGSxwXnK8n_5N7Id2-142" value="3" style="rounded=0;whiteSpace=wrap;html=1;fontSize=19;fontColor=#000000;strokeColor=#000000;strokeWidth=2;fillColor=#0000FF;gradientColor=none;fontStyle=1" parent="1" vertex="1">
                    <mxGeometry x="1422.8699999999997" y="149.5" width="20" height="20" as="geometry"/>
                </mxCell>
                <mxCell id="4MRAGSxwXnK8n_5N7Id2-145" value="5" style="rounded=0;whiteSpace=wrap;html=1;fontSize=19;fontColor=#000000;strokeColor=#000000;strokeWidth=2;fillColor=#FF0000;gradientColor=none;fontStyle=1" parent="1" vertex="1">
                    <mxGeometry x="1382.8699999999997" y="169.5" width="20" height="20" as="geometry"/>
                </mxCell>
                <mxCell id="4MRAGSxwXnK8n_5N7Id2-150" value="6" style="rounded=0;whiteSpace=wrap;html=1;fontSize=19;fontColor=#000000;strokeColor=#000000;strokeWidth=2;fillColor=#FF0000;gradientColor=none;fontStyle=1" parent="1" vertex="1">
                    <mxGeometry x="1382.8699999999997" y="189.5" width="20" height="20" as="geometry"/>
                </mxCell>
                <mxCell id="4MRAGSxwXnK8n_5N7Id2-151" value="7" style="rounded=0;whiteSpace=wrap;html=1;fontSize=19;fontColor=#000000;strokeColor=#000000;strokeWidth=2;fillColor=#FF0000;gradientColor=none;fontStyle=1" parent="1" vertex="1">
                    <mxGeometry x="1382.8699999999997" y="209.5" width="20" height="20" as="geometry"/>
                </mxCell>
                <mxCell id="4MRAGSxwXnK8n_5N7Id2-152" value="8" style="rounded=0;whiteSpace=wrap;html=1;fontSize=19;fontColor=#000000;strokeColor=#000000;strokeWidth=2;fillColor=#FF0000;gradientColor=none;fontStyle=1" parent="1" vertex="1">
                    <mxGeometry x="1382.8699999999997" y="229.5" width="20" height="20" as="geometry"/>
                </mxCell>
                <mxCell id="4MRAGSxwXnK8n_5N7Id2-161" value="5" style="rounded=0;whiteSpace=wrap;html=1;fontSize=19;fontColor=#000000;strokeColor=#000000;strokeWidth=2;fillColor=#00FF00;gradientColor=none;fontStyle=1" parent="1" vertex="1">
                    <mxGeometry x="1402.8699999999997" y="169.5" width="20" height="20" as="geometry"/>
                </mxCell>
                <mxCell id="4MRAGSxwXnK8n_5N7Id2-166" value="6" style="rounded=0;whiteSpace=wrap;html=1;fontSize=19;fontColor=#000000;strokeColor=#000000;strokeWidth=2;fillColor=#00FF00;gradientColor=none;fontStyle=1" parent="1" vertex="1">
                    <mxGeometry x="1402.8699999999997" y="189.5" width="20" height="20" as="geometry"/>
                </mxCell>
                <mxCell id="4MRAGSxwXnK8n_5N7Id2-167" value="7" style="rounded=0;whiteSpace=wrap;html=1;fontSize=19;fontColor=#000000;strokeColor=#000000;strokeWidth=2;fillColor=#00FF00;gradientColor=none;fontStyle=1" parent="1" vertex="1">
                    <mxGeometry x="1402.8699999999997" y="209.5" width="20" height="20" as="geometry"/>
                </mxCell>
                <mxCell id="4MRAGSxwXnK8n_5N7Id2-168" value="8" style="rounded=0;whiteSpace=wrap;html=1;fontSize=19;fontColor=#000000;strokeColor=#000000;strokeWidth=2;fillColor=#00FF00;gradientColor=none;fontStyle=1" parent="1" vertex="1">
                    <mxGeometry x="1402.8699999999997" y="229.5" width="20" height="20" as="geometry"/>
                </mxCell>
                <mxCell id="4MRAGSxwXnK8n_5N7Id2-177" value="5" style="rounded=0;whiteSpace=wrap;html=1;fontSize=19;fontColor=#000000;strokeColor=#000000;strokeWidth=2;fillColor=#0000FF;gradientColor=none;fontStyle=1" parent="1" vertex="1">
                    <mxGeometry x="1422.8699999999997" y="169.5" width="20" height="20" as="geometry"/>
                </mxCell>
                <mxCell id="4MRAGSxwXnK8n_5N7Id2-182" value="6" style="rounded=0;whiteSpace=wrap;html=1;fontSize=19;fontColor=#000000;strokeColor=#000000;strokeWidth=2;fillColor=#0000FF;gradientColor=none;fontStyle=1" parent="1" vertex="1">
                    <mxGeometry x="1422.8699999999997" y="189.5" width="20" height="20" as="geometry"/>
                </mxCell>
                <mxCell id="4MRAGSxwXnK8n_5N7Id2-183" value="7" style="rounded=0;whiteSpace=wrap;html=1;fontSize=19;fontColor=#000000;strokeColor=#000000;strokeWidth=2;fillColor=#0000FF;gradientColor=none;fontStyle=1" parent="1" vertex="1">
                    <mxGeometry x="1422.8699999999997" y="209.5" width="20" height="20" as="geometry"/>
                </mxCell>
                <mxCell id="4MRAGSxwXnK8n_5N7Id2-184" value="8" style="rounded=0;whiteSpace=wrap;html=1;fontSize=19;fontColor=#000000;strokeColor=#000000;strokeWidth=2;fillColor=#0000FF;gradientColor=none;fontStyle=1" parent="1" vertex="1">
                    <mxGeometry x="1422.8699999999997" y="229.5" width="20" height="20" as="geometry"/>
                </mxCell>
                <mxCell id="4MRAGSxwXnK8n_5N7Id2-193" value="0" style="rounded=0;whiteSpace=wrap;html=1;fontSize=19;fontColor=#000000;strokeColor=#000000;strokeWidth=2;fillColor=#FF0000;gradientColor=none;fontStyle=1;rotation=90;horizontal=0;" parent="1" vertex="1">
                    <mxGeometry x="1618.49" y="109.5" width="20" height="20" as="geometry"/>
                </mxCell>
                <mxCell id="4MRAGSxwXnK8n_5N7Id2-197" value="0" style="rounded=0;whiteSpace=wrap;html=1;fontSize=19;fontColor=#000000;strokeColor=#000000;strokeWidth=2;fillColor=#00FF00;gradientColor=none;fontStyle=1;rotation=90;horizontal=0;" parent="1" vertex="1">
                    <mxGeometry x="1618.49" y="129.5" width="20" height="20" as="geometry"/>
                </mxCell>
                <mxCell id="4MRAGSxwXnK8n_5N7Id2-201" value="0" style="rounded=0;whiteSpace=wrap;html=1;fontSize=19;fontColor=#000000;strokeColor=#000000;strokeWidth=2;fillColor=#0000FF;gradientColor=none;fontStyle=1;rotation=90;horizontal=0;" parent="1" vertex="1">
                    <mxGeometry x="1618.49" y="149.5" width="20" height="20" as="geometry"/>
                </mxCell>
                <mxCell id="4MRAGSxwXnK8n_5N7Id2-205" value="4" style="rounded=0;whiteSpace=wrap;html=1;fontSize=19;fontColor=#000000;strokeColor=#000000;strokeWidth=2;fillColor=#FF0000;gradientColor=none;fontStyle=1;rotation=90;horizontal=0;" parent="1" vertex="1">
                    <mxGeometry x="1638.49" y="109.5" width="20" height="20" as="geometry"/>
                </mxCell>
                <mxCell id="4MRAGSxwXnK8n_5N7Id2-209" value="C" style="text;html=1;strokeColor=none;fillColor=none;align=center;verticalAlign=middle;whiteSpace=wrap;rounded=0;fontStyle=1;fontSize=19;" parent="1" vertex="1">
                    <mxGeometry x="1372.6199999999997" y="314.5" width="80.5" height="30" as="geometry"/>
                </mxCell>
                <mxCell id="4MRAGSxwXnK8n_5N7Id2-210" value="" style="ellipse;whiteSpace=wrap;html=1;aspect=fixed;strokeColor=#000000;verticalAlign=middle;fontColor=#333333;strokeWidth=2;fontStyle=1;fontSize=19;fillColor=#000000;" parent="1" vertex="1">
                    <mxGeometry x="1511.57" y="177" width="10" height="10" as="geometry"/>
                </mxCell>
                <mxCell id="4MRAGSxwXnK8n_5N7Id2-211" value="GEMM" style="text;html=1;strokeColor=none;fillColor=none;align=center;verticalAlign=middle;whiteSpace=wrap;rounded=0;fontStyle=1;strokeWidth=2;fontSize=19;" parent="1" vertex="1">
                    <mxGeometry x="1486.57" y="192" width="60" height="30" as="geometry"/>
                </mxCell>
                <mxCell id="4MRAGSxwXnK8n_5N7Id2-212" value="" style="endArrow=none;dashed=1;html=1;dashPattern=1 3;strokeWidth=2;rounded=1;fontSize=19;" parent="1" edge="1">
                    <mxGeometry width="50" height="50" relative="1" as="geometry">
                        <mxPoint x="1392.4299999999998" y="289.5" as="sourcePoint"/>
                        <mxPoint x="1392.4499999999998" y="249.5" as="targetPoint"/>
                    </mxGeometry>
                </mxCell>
                <mxCell id="4MRAGSxwXnK8n_5N7Id2-213" value="4" style="rounded=0;whiteSpace=wrap;html=1;fontSize=19;fontColor=#000000;strokeColor=#000000;strokeWidth=2;fillColor=#00FF00;gradientColor=none;fontStyle=1;rotation=90;horizontal=0;" parent="1" vertex="1">
                    <mxGeometry x="1638.49" y="129.5" width="20" height="20" as="geometry"/>
                </mxCell>
                <mxCell id="4MRAGSxwXnK8n_5N7Id2-217" value="4" style="rounded=0;whiteSpace=wrap;html=1;fontSize=19;fontColor=#000000;strokeColor=#000000;strokeWidth=2;fillColor=#0000FF;gradientColor=none;fontStyle=1;rotation=90;horizontal=0;" parent="1" vertex="1">
                    <mxGeometry x="1638.49" y="149.5" width="20" height="20" as="geometry"/>
                </mxCell>
                <mxCell id="4MRAGSxwXnK8n_5N7Id2-221" value="8" style="rounded=0;whiteSpace=wrap;html=1;fontSize=19;fontColor=#000000;strokeColor=#000000;strokeWidth=2;fillColor=#FF0000;gradientColor=none;fontStyle=1;rotation=90;horizontal=0;" parent="1" vertex="1">
                    <mxGeometry x="1657.99" y="109.5" width="20" height="20" as="geometry"/>
                </mxCell>
                <mxCell id="4MRAGSxwXnK8n_5N7Id2-225" value="12" style="rounded=0;whiteSpace=wrap;html=1;fontSize=19;fontColor=#000000;strokeColor=#000000;strokeWidth=2;fillColor=#FF0000;gradientColor=none;fontStyle=1;rotation=90;horizontal=0;" parent="1" vertex="1">
                    <mxGeometry x="1677.99" y="109.5" width="20" height="20" as="geometry"/>
                </mxCell>
                <mxCell id="4MRAGSxwXnK8n_5N7Id2-229" value="8" style="rounded=0;whiteSpace=wrap;html=1;fontSize=19;fontColor=#000000;strokeColor=#000000;strokeWidth=2;fillColor=#00FF00;gradientColor=none;fontStyle=1;rotation=90;horizontal=0;" parent="1" vertex="1">
                    <mxGeometry x="1657.99" y="129.5" width="20" height="20" as="geometry"/>
                </mxCell>
                <mxCell id="4MRAGSxwXnK8n_5N7Id2-234" value="12" style="rounded=0;whiteSpace=wrap;html=1;fontSize=19;fontColor=#000000;strokeColor=#000000;strokeWidth=2;fillColor=#00FF00;gradientColor=none;fontStyle=1;rotation=90;horizontal=0;" parent="1" vertex="1">
                    <mxGeometry x="1677.99" y="129.5" width="20" height="20" as="geometry"/>
                </mxCell>
                <mxCell id="4MRAGSxwXnK8n_5N7Id2-238" value="8" style="rounded=0;whiteSpace=wrap;html=1;fontSize=19;fontColor=#000000;strokeColor=#000000;strokeWidth=2;fillColor=#0000FF;gradientColor=none;fontStyle=1;rotation=90;horizontal=0;" parent="1" vertex="1">
                    <mxGeometry x="1657.99" y="149.5" width="20" height="20" as="geometry"/>
                </mxCell>
                <mxCell id="4MRAGSxwXnK8n_5N7Id2-242" value="12" style="rounded=0;whiteSpace=wrap;html=1;fontSize=19;fontColor=#000000;strokeColor=#000000;strokeWidth=2;fillColor=#0000FF;gradientColor=none;fontStyle=1;rotation=90;horizontal=0;" parent="1" vertex="1">
                    <mxGeometry x="1677.99" y="149.5" width="20" height="20" as="geometry"/>
                </mxCell>
                <mxCell id="4MRAGSxwXnK8n_5N7Id2-246" value="" style="shape=curlyBracket;whiteSpace=wrap;html=1;rounded=1;flipH=1;fillColor=none;rotation=90;fontSize=19;" parent="1" vertex="1">
                    <mxGeometry x="1402.87" y="269.5" width="20" height="60" as="geometry"/>
                </mxCell>
                <mxCell id="4MRAGSxwXnK8n_5N7Id2-247" value="" style="shape=curlyBracket;whiteSpace=wrap;html=1;rounded=1;flipH=1;fillColor=none;rotation=-180;fontSize=19;" parent="1" vertex="1">
                    <mxGeometry x="1342.62" y="89.5" width="20" height="200" as="geometry"/>
                </mxCell>
                <mxCell id="4MRAGSxwXnK8n_5N7Id2-248" value="Z" style="text;html=1;strokeColor=none;fillColor=none;align=center;verticalAlign=middle;whiteSpace=wrap;rounded=0;fontStyle=1;fontSize=19;" parent="1" vertex="1">
                    <mxGeometry x="1289.9999999999998" y="174.5" width="80.5" height="30" as="geometry"/>
                </mxCell>
                <mxCell id="4MRAGSxwXnK8n_5N7Id2-288" value="F" style="text;html=1;strokeColor=none;fillColor=none;align=center;verticalAlign=middle;whiteSpace=wrap;rounded=0;fontStyle=1;fontSize=19;" parent="1" vertex="1">
                    <mxGeometry x="1618.49" y="194.5" width="80.5" height="30" as="geometry"/>
                </mxCell>
                <mxCell id="4MRAGSxwXnK8n_5N7Id2-289" value="" style="shape=curlyBracket;whiteSpace=wrap;html=1;rounded=1;flipH=1;fillColor=none;rotation=90;fontSize=19;" parent="1" vertex="1">
                    <mxGeometry x="1644.3100000000002" y="150.04999999999995" width="26.08" height="77.5" as="geometry"/>
                </mxCell>
                <mxCell id="4MRAGSxwXnK8n_5N7Id2-302" value="" style="endArrow=classic;html=1;rounded=0;startArrow=none;startFill=0;strokeWidth=5;fontSize=19;strokeColor=#748AE0;" parent="1" edge="1">
                    <mxGeometry width="50" height="50" relative="1" as="geometry">
                        <mxPoint x="1413.11" y="362" as="sourcePoint"/>
                        <mxPoint x="1413.4399999999998" y="462" as="targetPoint"/>
                        <Array as="points">
                            <mxPoint x="1413.11" y="392"/>
                        </Array>
                    </mxGeometry>
                </mxCell>
                <mxCell id="2" value="" style="endArrow=classic;html=1;rounded=0;startArrow=none;startFill=0;strokeWidth=5;fontSize=19;" parent="1" edge="1">
                    <mxGeometry width="50" height="50" relative="1" as="geometry">
                        <mxPoint x="1728.55" y="162" as="sourcePoint"/>
                        <mxPoint x="1788.55" y="162" as="targetPoint"/>
                    </mxGeometry>
                </mxCell>
                <mxCell id="60" value="*" style="ellipse;whiteSpace=wrap;html=1;aspect=fixed;strokeColor=#000000;fillColor=#FFFFFF;verticalAlign=top;fontColor=#333333;strokeWidth=2;fontStyle=1;fontSize=19;" parent="1" vertex="1">
                    <mxGeometry x="1532.6399999999996" y="697.3" width="20" height="20" as="geometry"/>
                </mxCell>
                <mxCell id="71" value="Conv2D" style="text;html=1;strokeColor=none;fillColor=none;align=center;verticalAlign=middle;whiteSpace=wrap;rounded=0;fontStyle=1;fontSize=19;" parent="1" vertex="1">
                    <mxGeometry x="1511.5699999999997" y="719.81" width="60" height="30" as="geometry"/>
                </mxCell>
                <mxCell id="77" value="" style="shape=cube;whiteSpace=wrap;html=1;boundedLbl=1;backgroundOutline=1;darkOpacity=0.05;darkOpacity2=0.1;size=10;rotation=90;strokeWidth=2;fillColor=#0000FF;strokeColor=#33001A;fontSize=19;" parent="1" vertex="1">
                    <mxGeometry x="1652.5599999999997" y="538.7199999999998" width="30" height="25" as="geometry"/>
                </mxCell>
                <mxCell id="79" value="" style="shape=cube;whiteSpace=wrap;html=1;boundedLbl=1;backgroundOutline=1;darkOpacity=0.05;darkOpacity2=0.1;size=10;rotation=90;strokeWidth=2;fillColor=#00FF00;fontSize=19;" parent="1" vertex="1">
                    <mxGeometry x="1642.5599999999997" y="548.7199999999998" width="30" height="25" as="geometry"/>
                </mxCell>
                <mxCell id="84" value="0" style="shape=cube;whiteSpace=wrap;html=1;boundedLbl=1;backgroundOutline=1;darkOpacity=0.05;darkOpacity2=0.1;size=10;rotation=90;strokeWidth=2;fillColor=#FF0000;fontStyle=1;horizontal=0;fontSize=19;" parent="1" vertex="1">
                    <mxGeometry x="1632.5599999999997" y="558.7199999999998" width="30" height="25" as="geometry"/>
                </mxCell>
                <mxCell id="97" value="" style="shape=curlyBracket;whiteSpace=wrap;html=1;rounded=1;flipH=1;strokeColor=#000000;strokeWidth=2;fillColor=#FFFFFF;fontSize=19;" parent="1" vertex="1">
                    <mxGeometry x="1688.24" y="530.59" width="20" height="239.41" as="geometry"/>
                </mxCell>
                <mxCell id="108" value="Input Feature Maps" style="text;html=1;strokeColor=none;fillColor=none;align=center;verticalAlign=middle;whiteSpace=wrap;rounded=0;fontStyle=1;fontSize=19;" parent="1" vertex="1">
                    <mxGeometry x="1392.28" y="788.3900000000001" width="60" height="30" as="geometry"/>
                </mxCell>
                <mxCell id="113" value="" style="shape=curlyBracket;whiteSpace=wrap;html=1;rounded=1;flipH=1;strokeColor=#000000;strokeWidth=2;fillColor=#FFFFFF;rotation=-135;fontSize=19;" parent="1" vertex="1">
                    <mxGeometry x="1630.3099999999997" y="519.9699999999998" width="20" height="43.75" as="geometry"/>
                </mxCell>
                <mxCell id="114" value="" style="shape=curlyBracket;whiteSpace=wrap;html=1;rounded=1;flipH=1;strokeColor=#000000;strokeWidth=2;fillColor=#FFFFFF;rotation=-180;fontSize=19;" parent="1" vertex="1">
                    <mxGeometry x="1615.9199999999998" y="566.53" width="9.5" height="17.19" as="geometry"/>
                </mxCell>
                <mxCell id="115" value="" style="shape=curlyBracket;whiteSpace=wrap;html=1;rounded=1;flipH=1;strokeColor=#000000;strokeWidth=2;fillColor=#FFFFFF;rotation=90;fontSize=19;" parent="1" vertex="1">
                    <mxGeometry x="1637.1799999999998" y="591.8499999999999" width="9.5" height="13.44" as="geometry"/>
                </mxCell>
                <mxCell id="116" value="1" style="text;html=1;strokeColor=none;fillColor=none;align=center;verticalAlign=middle;whiteSpace=wrap;rounded=0;fontStyle=1;fontSize=19;" parent="1" vertex="1">
                    <mxGeometry x="1590.6799999999996" y="561.8499999999999" width="30.5" height="30" as="geometry"/>
                </mxCell>
                <mxCell id="117" value="1" style="text;html=1;strokeColor=none;fillColor=none;align=center;verticalAlign=middle;whiteSpace=wrap;rounded=0;fontStyle=1;fontSize=19;" parent="1" vertex="1">
                    <mxGeometry x="1612.5599999999997" y="606.8699999999999" width="60" height="15.62" as="geometry"/>
                </mxCell>
                <mxCell id="118" value="" style="shape=cube;whiteSpace=wrap;html=1;boundedLbl=1;backgroundOutline=1;darkOpacity=0.05;darkOpacity2=0.1;size=10;rotation=90;strokeWidth=2;fillColor=#0000FF;strokeColor=#33001A;fontSize=19;" parent="1" vertex="1">
                    <mxGeometry x="1650.3099999999997" y="635.5899999999999" width="30" height="25" as="geometry"/>
                </mxCell>
                <mxCell id="119" value="" style="shape=cube;whiteSpace=wrap;html=1;boundedLbl=1;backgroundOutline=1;darkOpacity=0.05;darkOpacity2=0.1;size=10;rotation=90;strokeWidth=2;fillColor=#00FF00;fontSize=19;" parent="1" vertex="1">
                    <mxGeometry x="1640.3099999999997" y="645.5899999999999" width="30" height="25" as="geometry"/>
                </mxCell>
                <mxCell id="120" value="4" style="shape=cube;whiteSpace=wrap;html=1;boundedLbl=1;backgroundOutline=1;darkOpacity=0.05;darkOpacity2=0.1;size=10;rotation=90;strokeWidth=2;fillColor=#FF0000;fontStyle=1;horizontal=0;fontSize=19;" parent="1" vertex="1">
                    <mxGeometry x="1630.3099999999997" y="655.5899999999999" width="30" height="25" as="geometry"/>
                </mxCell>
                <mxCell id="121" value="" style="shape=cube;whiteSpace=wrap;html=1;boundedLbl=1;backgroundOutline=1;darkOpacity=0.05;darkOpacity2=0.1;size=10;rotation=90;strokeWidth=2;fillColor=#0000FF;strokeColor=#33001A;fontSize=19;" parent="1" vertex="1">
                    <mxGeometry x="1650.3099999999997" y="689.9699999999998" width="30" height="25" as="geometry"/>
                </mxCell>
                <mxCell id="122" value="" style="shape=cube;whiteSpace=wrap;html=1;boundedLbl=1;backgroundOutline=1;darkOpacity=0.05;darkOpacity2=0.1;size=10;rotation=90;strokeWidth=2;fillColor=#00FF00;fontSize=19;" parent="1" vertex="1">
                    <mxGeometry x="1640.3099999999997" y="699.9699999999998" width="30" height="25" as="geometry"/>
                </mxCell>
                <mxCell id="123" value="8" style="shape=cube;whiteSpace=wrap;html=1;boundedLbl=1;backgroundOutline=1;darkOpacity=0.05;darkOpacity2=0.1;size=10;rotation=90;strokeWidth=2;fillColor=#FF0000;fontStyle=1;horizontal=0;fontSize=19;" parent="1" vertex="1">
                    <mxGeometry x="1630.3099999999997" y="709.9699999999998" width="30" height="25" as="geometry"/>
                </mxCell>
                <mxCell id="127" value="C" style="text;html=1;strokeColor=none;fillColor=none;align=center;verticalAlign=middle;whiteSpace=wrap;rounded=0;fontStyle=1;fontSize=19;" parent="1" vertex="1">
                    <mxGeometry x="1592.5599999999997" y="508.7199999999998" width="60" height="30" as="geometry"/>
                </mxCell>
                <mxCell id="128" value="1x1 Weights" style="text;html=1;strokeColor=none;fillColor=none;align=center;verticalAlign=middle;whiteSpace=wrap;rounded=0;fontStyle=1;fontSize=19;" parent="1" vertex="1">
                    <mxGeometry x="1632.5599999999997" y="799.9999999999999" width="60" height="30" as="geometry"/>
                </mxCell>
                <mxCell id="129" value="F" style="text;html=1;strokeColor=none;fillColor=none;align=center;verticalAlign=middle;whiteSpace=wrap;rounded=0;fontStyle=1;fontSize=19;" parent="1" vertex="1">
                    <mxGeometry x="1688.2399999999996" y="643.0899999999999" width="60" height="30" as="geometry"/>
                </mxCell>
                <mxCell id="131" value="" style="endArrow=none;dashed=1;html=1;dashPattern=1 3;strokeWidth=2;rounded=1;fontSize=19;" parent="1" edge="1">
                    <mxGeometry width="50" height="50" relative="1" as="geometry">
                        <mxPoint x="1412.6399999999999" y="289.5" as="sourcePoint"/>
                        <mxPoint x="1412.6599999999999" y="249.5" as="targetPoint"/>
                    </mxGeometry>
                </mxCell>
                <mxCell id="132" value="" style="endArrow=none;dashed=1;html=1;dashPattern=1 3;strokeWidth=2;rounded=1;fontSize=19;" parent="1" edge="1">
                    <mxGeometry width="50" height="50" relative="1" as="geometry">
                        <mxPoint x="1432.7499999999998" y="289.5" as="sourcePoint"/>
                        <mxPoint x="1432.7699999999998" y="249.5" as="targetPoint"/>
                    </mxGeometry>
                </mxCell>
                <mxCell id="133" value="" style="endArrow=classic;html=1;rounded=0;startArrow=none;startFill=0;strokeWidth=5;fontSize=19;strokeColor=#748AE0;" parent="1" edge="1">
                    <mxGeometry width="50" height="50" relative="1" as="geometry">
                        <mxPoint x="1692.34" y="362" as="sourcePoint"/>
                        <mxPoint x="1692.6699999999998" y="462" as="targetPoint"/>
                        <Array as="points">
                            <mxPoint x="1692.34" y="392"/>
                        </Array>
                    </mxGeometry>
                </mxCell>
                <mxCell id="135" value="C" style="text;html=1;strokeColor=none;fillColor=none;align=center;verticalAlign=middle;whiteSpace=wrap;rounded=0;fontStyle=1;fontSize=19;" parent="1" vertex="1">
                    <mxGeometry x="1536.6699999999998" y="124.5" width="80.5" height="30" as="geometry"/>
                </mxCell>
                <mxCell id="141" value="" style="shape=curlyBracket;whiteSpace=wrap;html=1;rounded=1;flipH=1;fillColor=none;rotation=-180;fontSize=19;" parent="1" vertex="1">
                    <mxGeometry x="1592.6100000000001" y="109.5" width="20" height="60" as="geometry"/>
                </mxCell>
                <mxCell id="227" value="0" style="rounded=0;whiteSpace=wrap;html=1;fontSize=19;strokeColor=#000000;strokeWidth=2;gradientColor=none;fontStyle=1;noLabel=1;fontColor=none;fillColor=#FFFF66;" parent="1" vertex="1">
                    <mxGeometry x="1866.8799999999997" y="62" width="20" height="20" as="geometry"/>
                </mxCell>
                <mxCell id="228" value="1" style="rounded=0;whiteSpace=wrap;html=1;fontSize=19;strokeColor=#000000;strokeWidth=2;gradientColor=none;fontStyle=1;noLabel=1;fontColor=none;fillColor=#FFFF66;" parent="1" vertex="1">
                    <mxGeometry x="1866.8799999999997" y="82" width="20" height="20" as="geometry"/>
                </mxCell>
                <mxCell id="229" value="2" style="rounded=0;whiteSpace=wrap;html=1;fontSize=19;strokeColor=#000000;strokeWidth=2;gradientColor=none;fontStyle=1;noLabel=1;fontColor=none;fillColor=#FFFF66;" parent="1" vertex="1">
                    <mxGeometry x="1866.8799999999997" y="102" width="20" height="20" as="geometry"/>
                </mxCell>
                <mxCell id="230" value="3" style="rounded=0;whiteSpace=wrap;html=1;fontSize=19;strokeColor=#000000;strokeWidth=2;gradientColor=none;fontStyle=1;noLabel=1;fontColor=none;fillColor=#FFFF66;" parent="1" vertex="1">
                    <mxGeometry x="1866.8799999999997" y="122" width="20" height="20" as="geometry"/>
                </mxCell>
                <mxCell id="231" value="0" style="rounded=0;whiteSpace=wrap;html=1;fontSize=19;strokeColor=#000000;strokeWidth=2;gradientColor=none;fontStyle=1;noLabel=1;fontColor=none;fillColor=#7EA6E0;" parent="1" vertex="1">
                    <mxGeometry x="1886.8799999999997" y="62" width="20" height="20" as="geometry"/>
                </mxCell>
                <mxCell id="232" value="1" style="rounded=0;whiteSpace=wrap;html=1;fontSize=19;strokeColor=#000000;strokeWidth=2;gradientColor=none;fontStyle=1;noLabel=1;fontColor=none;fillColor=#7EA6E0;" parent="1" vertex="1">
                    <mxGeometry x="1886.8799999999997" y="82" width="20" height="20" as="geometry"/>
                </mxCell>
                <mxCell id="233" value="2" style="rounded=0;whiteSpace=wrap;html=1;fontSize=19;strokeColor=#000000;strokeWidth=2;gradientColor=none;fontStyle=1;noLabel=1;fontColor=none;fillColor=#7EA6E0;" parent="1" vertex="1">
                    <mxGeometry x="1886.8799999999997" y="102" width="20" height="20" as="geometry"/>
                </mxCell>
                <mxCell id="234" value="3" style="rounded=0;whiteSpace=wrap;html=1;fontSize=19;strokeColor=#000000;strokeWidth=2;gradientColor=none;fontStyle=1;noLabel=1;fontColor=none;fillColor=#7EA6E0;" parent="1" vertex="1">
                    <mxGeometry x="1886.8799999999997" y="122" width="20" height="20" as="geometry"/>
                </mxCell>
                <mxCell id="235" value="0" style="rounded=0;whiteSpace=wrap;html=1;fontSize=19;strokeColor=#000000;strokeWidth=2;gradientColor=none;fontStyle=1;noLabel=1;fontColor=none;fillColor=#FF3399;" parent="1" vertex="1">
                    <mxGeometry x="1906.8799999999997" y="62" width="20" height="20" as="geometry"/>
                </mxCell>
                <mxCell id="236" value="1" style="rounded=0;whiteSpace=wrap;html=1;fontSize=19;strokeColor=#000000;strokeWidth=2;gradientColor=none;fontStyle=1;noLabel=1;fontColor=none;fillColor=#FF3399;" parent="1" vertex="1">
                    <mxGeometry x="1906.8799999999997" y="82" width="20" height="20" as="geometry"/>
                </mxCell>
                <mxCell id="237" value="2" style="rounded=0;whiteSpace=wrap;html=1;fontSize=19;strokeColor=#000000;strokeWidth=2;gradientColor=none;fontStyle=1;noLabel=1;fontColor=none;fillColor=#FF3399;" parent="1" vertex="1">
                    <mxGeometry x="1906.8799999999997" y="102" width="20" height="20" as="geometry"/>
                </mxCell>
                <mxCell id="238" value="3" style="rounded=0;whiteSpace=wrap;html=1;fontSize=19;strokeColor=#000000;strokeWidth=2;gradientColor=none;fontStyle=1;noLabel=1;fontColor=none;fillColor=#FF3399;" parent="1" vertex="1">
                    <mxGeometry x="1906.8799999999997" y="122" width="20" height="20" as="geometry"/>
                </mxCell>
                <mxCell id="239" value="5" style="rounded=0;whiteSpace=wrap;html=1;fontSize=19;strokeColor=#000000;strokeWidth=2;gradientColor=none;fontStyle=1;noLabel=1;fontColor=none;fillColor=#FFFF66;" parent="1" vertex="1">
                    <mxGeometry x="1866.8799999999997" y="142" width="20" height="20" as="geometry"/>
                </mxCell>
                <mxCell id="240" value="6" style="rounded=0;whiteSpace=wrap;html=1;fontSize=19;strokeColor=#000000;strokeWidth=2;gradientColor=none;fontStyle=1;noLabel=1;fontColor=none;fillColor=#FFFF66;" parent="1" vertex="1">
                    <mxGeometry x="1866.8799999999997" y="162" width="20" height="20" as="geometry"/>
                </mxCell>
                <mxCell id="241" value="7" style="rounded=0;whiteSpace=wrap;html=1;fontSize=19;strokeColor=#000000;strokeWidth=2;gradientColor=none;fontStyle=1;noLabel=1;fontColor=none;fillColor=#FFFF66;" parent="1" vertex="1">
                    <mxGeometry x="1866.8799999999997" y="182" width="20" height="20" as="geometry"/>
                </mxCell>
                <mxCell id="242" value="8" style="rounded=0;whiteSpace=wrap;html=1;fontSize=19;strokeColor=#000000;strokeWidth=2;gradientColor=none;fontStyle=1;noLabel=1;fontColor=none;fillColor=#FFFF66;" parent="1" vertex="1">
                    <mxGeometry x="1866.8799999999997" y="202" width="20" height="20" as="geometry"/>
                </mxCell>
                <mxCell id="243" value="5" style="rounded=0;whiteSpace=wrap;html=1;fontSize=19;strokeColor=#000000;strokeWidth=2;gradientColor=none;fontStyle=1;noLabel=1;fontColor=none;fillColor=#7EA6E0;" parent="1" vertex="1">
                    <mxGeometry x="1886.8799999999997" y="142" width="20" height="20" as="geometry"/>
                </mxCell>
                <mxCell id="244" value="6" style="rounded=0;whiteSpace=wrap;html=1;fontSize=19;strokeColor=#000000;strokeWidth=2;gradientColor=none;fontStyle=1;noLabel=1;fontColor=none;fillColor=#7EA6E0;" parent="1" vertex="1">
                    <mxGeometry x="1886.8799999999997" y="162" width="20" height="20" as="geometry"/>
                </mxCell>
                <mxCell id="245" value="7" style="rounded=0;whiteSpace=wrap;html=1;fontSize=19;strokeColor=#000000;strokeWidth=2;gradientColor=none;fontStyle=1;noLabel=1;fontColor=none;fillColor=#7EA6E0;" parent="1" vertex="1">
                    <mxGeometry x="1886.8799999999997" y="182" width="20" height="20" as="geometry"/>
                </mxCell>
                <mxCell id="246" value="8" style="rounded=0;whiteSpace=wrap;html=1;fontSize=19;strokeColor=#000000;strokeWidth=2;gradientColor=none;fontStyle=1;noLabel=1;fontColor=none;fillColor=#7EA6E0;" parent="1" vertex="1">
                    <mxGeometry x="1886.8799999999997" y="202" width="20" height="20" as="geometry"/>
                </mxCell>
                <mxCell id="247" value="5" style="rounded=0;whiteSpace=wrap;html=1;fontSize=19;strokeColor=#000000;strokeWidth=2;gradientColor=none;fontStyle=1;noLabel=1;fontColor=none;fillColor=#FF3399;" parent="1" vertex="1">
                    <mxGeometry x="1906.8799999999997" y="142" width="20" height="20" as="geometry"/>
                </mxCell>
                <mxCell id="248" value="6" style="rounded=0;whiteSpace=wrap;html=1;fontSize=19;strokeColor=#000000;strokeWidth=2;gradientColor=none;fontStyle=1;noLabel=1;fontColor=none;fillColor=#FF3399;" parent="1" vertex="1">
                    <mxGeometry x="1906.8799999999997" y="162" width="20" height="20" as="geometry"/>
                </mxCell>
                <mxCell id="249" value="7" style="rounded=0;whiteSpace=wrap;html=1;fontSize=19;strokeColor=#000000;strokeWidth=2;gradientColor=none;fontStyle=1;noLabel=1;fontColor=none;fillColor=#FF3399;" parent="1" vertex="1">
                    <mxGeometry x="1906.8799999999997" y="182" width="20" height="20" as="geometry"/>
                </mxCell>
                <mxCell id="250" value="8" style="rounded=0;whiteSpace=wrap;html=1;fontSize=19;strokeColor=#000000;strokeWidth=2;gradientColor=none;fontStyle=1;noLabel=1;fontColor=none;fillColor=#FF3399;" parent="1" vertex="1">
                    <mxGeometry x="1906.8799999999997" y="202" width="20" height="20" as="geometry"/>
                </mxCell>
                <mxCell id="251" value="F" style="text;html=1;strokeColor=none;fillColor=none;align=center;verticalAlign=middle;whiteSpace=wrap;rounded=0;fontStyle=1;fontSize=19;" parent="1" vertex="1">
                    <mxGeometry x="1868.7499999999995" y="289.5" width="80.5" height="30" as="geometry"/>
                </mxCell>
                <mxCell id="252" value="" style="endArrow=none;dashed=1;html=1;dashPattern=1 3;strokeWidth=2;rounded=1;fontSize=19;" parent="1" edge="1">
                    <mxGeometry width="50" height="50" relative="1" as="geometry">
                        <mxPoint x="1876.4399999999998" y="262" as="sourcePoint"/>
                        <mxPoint x="1876.4599999999998" y="222" as="targetPoint"/>
                    </mxGeometry>
                </mxCell>
                <mxCell id="253" value="" style="shape=curlyBracket;whiteSpace=wrap;html=1;rounded=1;flipH=1;fillColor=none;rotation=90;fontSize=19;" parent="1" vertex="1">
                    <mxGeometry x="1898.1299999999999" y="230.75" width="20" height="82.5" as="geometry"/>
                </mxCell>
                <mxCell id="254" value="" style="shape=curlyBracket;whiteSpace=wrap;html=1;rounded=1;flipH=1;fillColor=none;rotation=-180;fontSize=19;" parent="1" vertex="1">
                    <mxGeometry x="1826.6299999999999" y="62" width="20" height="200" as="geometry"/>
                </mxCell>
                <mxCell id="255" value="Z" style="text;html=1;strokeColor=none;fillColor=none;align=center;verticalAlign=middle;whiteSpace=wrap;rounded=0;fontStyle=1;fontSize=19;" parent="1" vertex="1">
                    <mxGeometry x="1770.8799999999997" y="147" width="80.5" height="30" as="geometry"/>
                </mxCell>
                <mxCell id="256" value="" style="endArrow=none;dashed=1;html=1;dashPattern=1 3;strokeWidth=2;rounded=1;fontSize=19;" parent="1" edge="1">
                    <mxGeometry width="50" height="50" relative="1" as="geometry">
                        <mxPoint x="1896.6499999999999" y="262" as="sourcePoint"/>
                        <mxPoint x="1896.6699999999998" y="222" as="targetPoint"/>
                    </mxGeometry>
                </mxCell>
                <mxCell id="257" value="" style="endArrow=none;dashed=1;html=1;dashPattern=1 3;strokeWidth=2;rounded=1;fontSize=19;" parent="1" edge="1">
                    <mxGeometry width="50" height="50" relative="1" as="geometry">
                        <mxPoint x="1916.7599999999998" y="262" as="sourcePoint"/>
                        <mxPoint x="1916.7799999999997" y="222" as="targetPoint"/>
                    </mxGeometry>
                </mxCell>
                <mxCell id="258" value="0" style="rounded=0;whiteSpace=wrap;html=1;fontSize=19;strokeColor=#000000;strokeWidth=2;gradientColor=none;fontStyle=1;noLabel=1;fontColor=none;fillColor=#D5E8D4;" parent="1" vertex="1">
                    <mxGeometry x="1926.8799999999997" y="62" width="20" height="20" as="geometry"/>
                </mxCell>
                <mxCell id="259" value="1" style="rounded=0;whiteSpace=wrap;html=1;fontSize=19;strokeColor=#000000;strokeWidth=2;gradientColor=none;fontStyle=1;noLabel=1;fontColor=none;fillColor=#D5E8D4;" parent="1" vertex="1">
                    <mxGeometry x="1926.8799999999997" y="82" width="20" height="20" as="geometry"/>
                </mxCell>
                <mxCell id="260" value="2" style="rounded=0;whiteSpace=wrap;html=1;fontSize=19;strokeColor=#000000;strokeWidth=2;gradientColor=none;fontStyle=1;noLabel=1;fontColor=none;fillColor=#D5E8D4;" parent="1" vertex="1">
                    <mxGeometry x="1926.8799999999997" y="102" width="20" height="20" as="geometry"/>
                </mxCell>
                <mxCell id="261" value="3" style="rounded=0;whiteSpace=wrap;html=1;fontSize=19;strokeColor=#000000;strokeWidth=2;gradientColor=none;fontStyle=1;noLabel=1;fontColor=none;fillColor=#D5E8D4;" parent="1" vertex="1">
                    <mxGeometry x="1926.8799999999997" y="122" width="20" height="20" as="geometry"/>
                </mxCell>
                <mxCell id="262" value="5" style="rounded=0;whiteSpace=wrap;html=1;fontSize=19;strokeColor=#000000;strokeWidth=2;gradientColor=none;fontStyle=1;noLabel=1;fontColor=none;fillColor=#D5E8D4;" parent="1" vertex="1">
                    <mxGeometry x="1926.8799999999997" y="142" width="20" height="20" as="geometry"/>
                </mxCell>
                <mxCell id="263" value="6" style="rounded=0;whiteSpace=wrap;html=1;fontSize=19;strokeColor=#000000;strokeWidth=2;gradientColor=none;fontStyle=1;noLabel=1;fontColor=none;fillColor=#D5E8D4;" parent="1" vertex="1">
                    <mxGeometry x="1926.8799999999997" y="162" width="20" height="20" as="geometry"/>
                </mxCell>
                <mxCell id="264" value="7" style="rounded=0;whiteSpace=wrap;html=1;fontSize=19;strokeColor=#000000;strokeWidth=2;gradientColor=none;fontStyle=1;noLabel=1;fontColor=none;fillColor=#D5E8D4;" parent="1" vertex="1">
                    <mxGeometry x="1926.8799999999997" y="182" width="20" height="20" as="geometry"/>
                </mxCell>
                <mxCell id="265" value="8" style="rounded=0;whiteSpace=wrap;html=1;fontSize=19;strokeColor=#000000;strokeWidth=2;gradientColor=none;fontStyle=1;noLabel=1;fontColor=none;fillColor=#D5E8D4;" parent="1" vertex="1">
                    <mxGeometry x="1926.8799999999997" y="202" width="20" height="20" as="geometry"/>
                </mxCell>
                <mxCell id="269" value="Transpose&amp;nbsp;&lt;br&gt;&amp;amp;&lt;br&gt;Reshape" style="text;strokeColor=none;fillColor=none;html=1;fontSize=19;fontStyle=1;verticalAlign=middle;align=center;fontColor=#748AE0;" parent="1" vertex="1">
                    <mxGeometry x="1588.97" y="378.25" width="100" height="40" as="geometry"/>
                </mxCell>
                <mxCell id="275" value="Input Feature Maps" style="text;html=1;strokeColor=none;fillColor=none;align=center;verticalAlign=middle;whiteSpace=wrap;rounded=0;fontStyle=1;fontSize=19;" parent="1" vertex="1">
                    <mxGeometry x="1383.12" y="32" width="60" height="30" as="geometry"/>
                </mxCell>
                <mxCell id="276" value="1x1 Weights" style="text;html=1;strokeColor=none;fillColor=none;align=center;verticalAlign=middle;whiteSpace=wrap;rounded=0;fontStyle=1;fontSize=19;" parent="1" vertex="1">
                    <mxGeometry x="1627.35" y="42" width="60" height="30" as="geometry"/>
                </mxCell>
                <mxCell id="277" value="" style="endArrow=classic;html=1;rounded=0;startArrow=none;startFill=0;strokeWidth=5;fontSize=19;" parent="1" edge="1">
                    <mxGeometry width="50" height="50" relative="1" as="geometry">
                        <mxPoint x="1749.5599999999997" y="657.12" as="sourcePoint"/>
                        <mxPoint x="1809.5599999999997" y="657.12" as="targetPoint"/>
                    </mxGeometry>
                </mxCell>
                <mxCell id="278" value="Transpose&amp;nbsp;&lt;br&gt;&amp;amp;&lt;br&gt;Reshape" style="text;strokeColor=none;fillColor=none;html=1;fontSize=19;fontStyle=1;verticalAlign=middle;align=center;fontColor=#748AE0;" parent="1" vertex="1">
                    <mxGeometry x="1298.7299999999998" y="378.25" width="100" height="40" as="geometry"/>
                </mxCell>
                <mxCell id="285" value="" style="endArrow=none;html=1;rounded=0;startArrow=classic;startFill=1;strokeWidth=5;fontSize=19;strokeColor=#9673a6;endFill=0;fillColor=#e1d5e7;" parent="1" edge="1">
                    <mxGeometry width="50" height="50" relative="1" as="geometry">
                        <mxPoint x="1906.9099999999999" y="348.25" as="sourcePoint"/>
                        <mxPoint x="1907.2399999999998" y="448.25" as="targetPoint"/>
                        <Array as="points">
                            <mxPoint x="1906.9099999999996" y="378.25"/>
                        </Array>
                    </mxGeometry>
                </mxCell>
                <mxCell id="286" value="Reshape&lt;br&gt;&amp;amp;&lt;br&gt;Transpose" style="text;strokeColor=none;fillColor=none;html=1;fontSize=19;fontStyle=1;verticalAlign=middle;align=center;fontColor=#9673A6;" parent="1" vertex="1">
                    <mxGeometry x="1792.5" y="378.25" width="100" height="40" as="geometry"/>
                </mxCell>
                <mxCell id="288" value="" style="shape=cube;whiteSpace=wrap;html=1;boundedLbl=1;backgroundOutline=1;darkOpacity=0.05;darkOpacity2=0.1;size=10;rotation=90;strokeWidth=2;fontSize=20;fillColor=#D5E8D4;" vertex="1" parent="1">
                    <mxGeometry x="1919.5" y="658.4300000000001" width="29.75" height="25" as="geometry"/>
                </mxCell>
                <mxCell id="290" value="" style="shape=cube;whiteSpace=wrap;html=1;boundedLbl=1;backgroundOutline=1;darkOpacity=0.05;darkOpacity2=0.1;size=10;rotation=90;strokeWidth=2;fontSize=20;fillColor=#FF3399;fontColor=none;noLabel=1;" vertex="1" parent="1">
                    <mxGeometry x="1909.63" y="668.29" width="30" height="25" as="geometry"/>
                </mxCell>
                <mxCell id="292" value="0" style="shape=cube;whiteSpace=wrap;html=1;boundedLbl=1;backgroundOutline=1;darkOpacity=0.05;darkOpacity2=0.1;size=10;rotation=90;strokeWidth=2;horizontal=0;fontSize=20;fontStyle=1;fillColor=#7EA6E0;fontColor=none;noLabel=1;" vertex="1" parent="1">
                    <mxGeometry x="1899.63" y="678.2899999999997" width="30" height="25" as="geometry"/>
                </mxCell>
                <mxCell id="294" value="0" style="shape=cube;whiteSpace=wrap;html=1;boundedLbl=1;backgroundOutline=1;darkOpacity=0.05;darkOpacity2=0.1;size=10;rotation=90;strokeWidth=2;horizontal=0;fontSize=20;fontStyle=1;fillColor=#FFFF66;fontColor=none;noLabel=1;" vertex="1" parent="1">
                    <mxGeometry x="1889.63" y="688.2899999999997" width="30" height="25" as="geometry"/>
                </mxCell>
                <mxCell id="296" value="" style="shape=cube;whiteSpace=wrap;html=1;boundedLbl=1;backgroundOutline=1;darkOpacity=0.05;darkOpacity2=0.1;size=10;rotation=90;strokeWidth=2;fontSize=20;fillColor=#D5E8D4;" vertex="1" parent="1">
                    <mxGeometry x="1919.25" y="638.4300000000001" width="29.75" height="25" as="geometry"/>
                </mxCell>
                <mxCell id="298" value="" style="shape=cube;whiteSpace=wrap;html=1;boundedLbl=1;backgroundOutline=1;darkOpacity=0.05;darkOpacity2=0.1;size=10;rotation=90;strokeWidth=2;fontSize=20;fillColor=#FF3399;fontColor=none;noLabel=1;" vertex="1" parent="1">
                    <mxGeometry x="1909.38" y="648.2899999999997" width="30" height="25" as="geometry"/>
                </mxCell>
                <mxCell id="300" value="0" style="shape=cube;whiteSpace=wrap;html=1;boundedLbl=1;backgroundOutline=1;darkOpacity=0.05;darkOpacity2=0.1;size=10;rotation=90;strokeWidth=2;horizontal=0;fontSize=20;fontStyle=1;fillColor=#7EA6E0;fontColor=none;noLabel=1;" vertex="1" parent="1">
                    <mxGeometry x="1899.38" y="658.29" width="30" height="25" as="geometry"/>
                </mxCell>
                <mxCell id="302" value="0" style="shape=cube;whiteSpace=wrap;html=1;boundedLbl=1;backgroundOutline=1;darkOpacity=0.05;darkOpacity2=0.1;size=10;rotation=90;strokeWidth=2;horizontal=0;fontSize=20;fontStyle=1;fillColor=#FFFF66;fontColor=none;noLabel=1;" vertex="1" parent="1">
                    <mxGeometry x="1889.38" y="668.2899999999997" width="30" height="25" as="geometry"/>
                </mxCell>
                <mxCell id="304" value="" style="shape=cube;whiteSpace=wrap;html=1;boundedLbl=1;backgroundOutline=1;darkOpacity=0.05;darkOpacity2=0.1;size=10;rotation=90;strokeWidth=2;fontSize=20;fillColor=#D5E8D4;" vertex="1" parent="1">
                    <mxGeometry x="1919.25" y="619.8700000000001" width="29.75" height="25" as="geometry"/>
                </mxCell>
                <mxCell id="306" value="" style="shape=cube;whiteSpace=wrap;html=1;boundedLbl=1;backgroundOutline=1;darkOpacity=0.05;darkOpacity2=0.1;size=10;rotation=90;strokeWidth=2;fontSize=20;fillColor=#FF3399;fontColor=none;noLabel=1;" vertex="1" parent="1">
                    <mxGeometry x="1909.38" y="629.7299999999998" width="30" height="25" as="geometry"/>
                </mxCell>
                <mxCell id="308" value="0" style="shape=cube;whiteSpace=wrap;html=1;boundedLbl=1;backgroundOutline=1;darkOpacity=0.05;darkOpacity2=0.1;size=10;rotation=90;strokeWidth=2;horizontal=0;fontSize=20;fontStyle=1;fillColor=#7EA6E0;fontColor=none;noLabel=1;" vertex="1" parent="1">
                    <mxGeometry x="1899.38" y="639.7299999999998" width="30" height="25" as="geometry"/>
                </mxCell>
                <mxCell id="310" value="0" style="shape=cube;whiteSpace=wrap;html=1;boundedLbl=1;backgroundOutline=1;darkOpacity=0.05;darkOpacity2=0.1;size=10;rotation=90;strokeWidth=2;horizontal=0;fontSize=20;fontStyle=1;fillColor=#FFFF66;fontColor=none;noLabel=1;" vertex="1" parent="1">
                    <mxGeometry x="1889.38" y="649.7299999999998" width="30" height="25" as="geometry"/>
                </mxCell>
                <mxCell id="312" value="" style="shape=cube;whiteSpace=wrap;html=1;boundedLbl=1;backgroundOutline=1;darkOpacity=0.05;darkOpacity2=0.1;size=10;rotation=90;strokeWidth=2;fontSize=20;fillColor=#D5E8D4;" vertex="1" parent="1">
                    <mxGeometry x="1919" y="599.8700000000001" width="29.75" height="25" as="geometry"/>
                </mxCell>
                <mxCell id="314" value="" style="shape=cube;whiteSpace=wrap;html=1;boundedLbl=1;backgroundOutline=1;darkOpacity=0.05;darkOpacity2=0.1;size=10;rotation=90;strokeWidth=2;fontSize=20;fillColor=#FF3399;fontColor=none;noLabel=1;" vertex="1" parent="1">
                    <mxGeometry x="1909.13" y="609.7299999999998" width="30" height="25" as="geometry"/>
                </mxCell>
                <mxCell id="316" value="0" style="shape=cube;whiteSpace=wrap;html=1;boundedLbl=1;backgroundOutline=1;darkOpacity=0.05;darkOpacity2=0.1;size=10;rotation=90;strokeWidth=2;horizontal=0;fontSize=20;fontStyle=1;fillColor=#7EA6E0;fontColor=none;noLabel=1;" vertex="1" parent="1">
                    <mxGeometry x="1899.13" y="619.7299999999998" width="30" height="25" as="geometry"/>
                </mxCell>
                <mxCell id="318" value="0" style="shape=cube;whiteSpace=wrap;html=1;boundedLbl=1;backgroundOutline=1;darkOpacity=0.05;darkOpacity2=0.1;size=10;rotation=90;strokeWidth=2;horizontal=0;fontSize=20;fontStyle=1;fillColor=#FFFF66;fontColor=none;noLabel=1;" vertex="1" parent="1">
                    <mxGeometry x="1889.13" y="629.7299999999998" width="30" height="25" as="geometry"/>
                </mxCell>
                <mxCell id="320" value="" style="shape=cube;whiteSpace=wrap;html=1;boundedLbl=1;backgroundOutline=1;darkOpacity=0.05;darkOpacity2=0.1;size=10;rotation=90;strokeWidth=2;fontSize=20;fillColor=#D5E8D4;" vertex="1" parent="1">
                    <mxGeometry x="1918.7599999999998" y="579.8900000000001" width="29.75" height="25" as="geometry"/>
                </mxCell>
                <mxCell id="322" value="" style="shape=cube;whiteSpace=wrap;html=1;boundedLbl=1;backgroundOutline=1;darkOpacity=0.05;darkOpacity2=0.1;size=10;rotation=90;strokeWidth=2;fontSize=20;fillColor=#FF3399;fontColor=none;noLabel=1;" vertex="1" parent="1">
                    <mxGeometry x="1908.8899999999999" y="589.75" width="30" height="25" as="geometry"/>
                </mxCell>
                <mxCell id="324" value="0" style="shape=cube;whiteSpace=wrap;html=1;boundedLbl=1;backgroundOutline=1;darkOpacity=0.05;darkOpacity2=0.1;size=10;rotation=90;strokeWidth=2;horizontal=0;fontSize=20;fontStyle=1;fillColor=#7EA6E0;fontColor=none;noLabel=1;" vertex="1" parent="1">
                    <mxGeometry x="1898.8899999999999" y="599.7499999999998" width="30" height="25" as="geometry"/>
                </mxCell>
                <mxCell id="326" value="0" style="shape=cube;whiteSpace=wrap;html=1;boundedLbl=1;backgroundOutline=1;darkOpacity=0.05;darkOpacity2=0.1;size=10;rotation=90;strokeWidth=2;horizontal=0;fontSize=20;fontStyle=1;fillColor=#FFFF66;fontColor=none;noLabel=1;" vertex="1" parent="1">
                    <mxGeometry x="1888.8899999999999" y="609.7499999999998" width="30" height="25" as="geometry"/>
                </mxCell>
                <mxCell id="328" value="" style="shape=cube;whiteSpace=wrap;html=1;boundedLbl=1;backgroundOutline=1;darkOpacity=0.05;darkOpacity2=0.1;size=10;rotation=90;strokeWidth=2;fontSize=20;fillColor=#D5E8D4;" vertex="1" parent="1">
                    <mxGeometry x="1918.5099999999998" y="559.8900000000001" width="29.75" height="25" as="geometry"/>
                </mxCell>
                <mxCell id="330" value="" style="shape=cube;whiteSpace=wrap;html=1;boundedLbl=1;backgroundOutline=1;darkOpacity=0.05;darkOpacity2=0.1;size=10;rotation=90;strokeWidth=2;fontSize=20;fillColor=#FF3399;fontColor=none;noLabel=1;" vertex="1" parent="1">
                    <mxGeometry x="1908.6399999999999" y="569.7499999999998" width="30" height="25" as="geometry"/>
                </mxCell>
                <mxCell id="332" value="0" style="shape=cube;whiteSpace=wrap;html=1;boundedLbl=1;backgroundOutline=1;darkOpacity=0.05;darkOpacity2=0.1;size=10;rotation=90;strokeWidth=2;horizontal=0;fontSize=20;fontStyle=1;fillColor=#7EA6E0;fontColor=none;noLabel=1;" vertex="1" parent="1">
                    <mxGeometry x="1898.6399999999999" y="579.75" width="30" height="25" as="geometry"/>
                </mxCell>
                <mxCell id="334" value="0" style="shape=cube;whiteSpace=wrap;html=1;boundedLbl=1;backgroundOutline=1;darkOpacity=0.05;darkOpacity2=0.1;size=10;rotation=90;strokeWidth=2;horizontal=0;fontSize=20;fontStyle=1;fillColor=#FFFF66;fontColor=none;noLabel=1;" vertex="1" parent="1">
                    <mxGeometry x="1888.6399999999999" y="589.7499999999998" width="30" height="25" as="geometry"/>
                </mxCell>
                <mxCell id="336" value="" style="shape=cube;whiteSpace=wrap;html=1;boundedLbl=1;backgroundOutline=1;darkOpacity=0.05;darkOpacity2=0.1;size=10;rotation=90;strokeWidth=2;fontSize=20;fillColor=#D5E8D4;" vertex="1" parent="1">
                    <mxGeometry x="1918.5099999999998" y="541.3300000000002" width="29.75" height="25" as="geometry"/>
                </mxCell>
                <mxCell id="338" value="" style="shape=cube;whiteSpace=wrap;html=1;boundedLbl=1;backgroundOutline=1;darkOpacity=0.05;darkOpacity2=0.1;size=10;rotation=90;strokeWidth=2;fontSize=20;fillColor=#FF3399;fontColor=none;noLabel=1;" vertex="1" parent="1">
                    <mxGeometry x="1908.6399999999999" y="551.19" width="30" height="25" as="geometry"/>
                </mxCell>
                <mxCell id="340" value="0" style="shape=cube;whiteSpace=wrap;html=1;boundedLbl=1;backgroundOutline=1;darkOpacity=0.05;darkOpacity2=0.1;size=10;rotation=90;strokeWidth=2;horizontal=0;fontSize=20;fontStyle=1;fillColor=#7EA6E0;fontColor=none;noLabel=1;" vertex="1" parent="1">
                    <mxGeometry x="1898.6399999999999" y="561.1899999999998" width="30" height="25" as="geometry"/>
                </mxCell>
                <mxCell id="342" value="0" style="shape=cube;whiteSpace=wrap;html=1;boundedLbl=1;backgroundOutline=1;darkOpacity=0.05;darkOpacity2=0.1;size=10;rotation=90;strokeWidth=2;horizontal=0;fontSize=20;fontStyle=1;fillColor=#FFFF66;fontColor=none;noLabel=1;" vertex="1" parent="1">
                    <mxGeometry x="1888.6399999999999" y="571.1899999999998" width="30" height="25" as="geometry"/>
                </mxCell>
                <mxCell id="344" value="" style="shape=cube;whiteSpace=wrap;html=1;boundedLbl=1;backgroundOutline=1;darkOpacity=0.05;darkOpacity2=0.1;size=10;rotation=90;strokeWidth=2;fontSize=20;fillColor=#D5E8D4;" vertex="1" parent="1">
                    <mxGeometry x="1918.2599999999998" y="521.3300000000002" width="29.75" height="25" as="geometry"/>
                </mxCell>
                <mxCell id="350" value="5" style="shape=cube;whiteSpace=wrap;html=1;boundedLbl=1;backgroundOutline=1;darkOpacity=0.05;darkOpacity2=0.1;size=10;rotation=90;fillColor=#0000FF;strokeWidth=2;horizontal=0;fontSize=20;fontStyle=1" vertex="1" parent="1">
                    <mxGeometry x="1420.6200000000001" y="643.7199999999998" width="30" height="25" as="geometry"/>
                </mxCell>
                <mxCell id="351" value="4" style="shape=cube;whiteSpace=wrap;html=1;boundedLbl=1;backgroundOutline=1;darkOpacity=0.05;darkOpacity2=0.1;size=10;rotation=90;horizontal=0;strokeWidth=2;fontSize=20;fillColor=#0000FF;fontStyle=1" vertex="1" parent="1">
                    <mxGeometry x="1420.6200000000001" y="623.7199999999996" width="30" height="25" as="geometry"/>
                </mxCell>
                <mxCell id="352" value="3" style="shape=cube;whiteSpace=wrap;html=1;boundedLbl=1;backgroundOutline=1;darkOpacity=0.05;darkOpacity2=0.1;size=10;rotation=90;fillColor=#0000FF;strokeWidth=2;horizontal=0;fontSize=20;fontStyle=1" vertex="1" parent="1">
                    <mxGeometry x="1420.6200000000001" y="603.7199999999996" width="30" height="25" as="geometry"/>
                </mxCell>
                <mxCell id="353" value="2" style="shape=cube;whiteSpace=wrap;html=1;boundedLbl=1;backgroundOutline=1;darkOpacity=0.05;darkOpacity2=0.1;size=10;rotation=90;horizontal=0;strokeWidth=2;fontSize=20;fillColor=#0000FF;fontStyle=1" vertex="1" parent="1">
                    <mxGeometry x="1418.1200000000001" y="581.2199999999996" width="35" height="25" as="geometry"/>
                </mxCell>
                <mxCell id="354" value="1" style="shape=cube;whiteSpace=wrap;html=1;boundedLbl=1;backgroundOutline=1;darkOpacity=0.05;darkOpacity2=0.1;size=10;rotation=90;horizontal=0;strokeWidth=2;fontSize=20;fillColor=#0000FF;fontStyle=1" vertex="1" parent="1">
                    <mxGeometry x="1420.6200000000001" y="563.7199999999998" width="30" height="25" as="geometry"/>
                </mxCell>
                <mxCell id="360" value="5" style="shape=cube;whiteSpace=wrap;html=1;boundedLbl=1;backgroundOutline=1;darkOpacity=0.05;darkOpacity2=0.1;size=10;rotation=90;fillColor=#00FF00;strokeWidth=2;horizontal=0;fontSize=20;fontStyle=1" vertex="1" parent="1">
                    <mxGeometry x="1410.6200000000001" y="653.7199999999998" width="30" height="25" as="geometry"/>
                </mxCell>
                <mxCell id="361" value="4" style="shape=cube;whiteSpace=wrap;html=1;boundedLbl=1;backgroundOutline=1;darkOpacity=0.05;darkOpacity2=0.1;size=10;rotation=90;horizontal=0;strokeWidth=2;fontSize=20;fillColor=#00FF00;fontStyle=1" vertex="1" parent="1">
                    <mxGeometry x="1410.6200000000001" y="633.7199999999998" width="30" height="25" as="geometry"/>
                </mxCell>
                <mxCell id="362" value="3" style="shape=cube;whiteSpace=wrap;html=1;boundedLbl=1;backgroundOutline=1;darkOpacity=0.05;darkOpacity2=0.1;size=10;rotation=90;fillColor=#00FF00;strokeWidth=2;horizontal=0;fontSize=20;fontStyle=1" vertex="1" parent="1">
                    <mxGeometry x="1410.6200000000001" y="613.7199999999996" width="30" height="25" as="geometry"/>
                </mxCell>
                <mxCell id="363" value="2" style="shape=cube;whiteSpace=wrap;html=1;boundedLbl=1;backgroundOutline=1;darkOpacity=0.05;darkOpacity2=0.1;size=10;rotation=90;horizontal=0;strokeWidth=2;fontSize=20;fillColor=#00FF00;fontStyle=1" vertex="1" parent="1">
                    <mxGeometry x="1408.1200000000001" y="591.2199999999996" width="35" height="25" as="geometry"/>
                </mxCell>
                <mxCell id="364" value="1" style="shape=cube;whiteSpace=wrap;html=1;boundedLbl=1;backgroundOutline=1;darkOpacity=0.05;darkOpacity2=0.1;size=10;rotation=90;horizontal=0;strokeWidth=2;fontSize=20;fillColor=#00FF00;fontStyle=1" vertex="1" parent="1">
                    <mxGeometry x="1410.6200000000001" y="573.7199999999996" width="30" height="25" as="geometry"/>
                </mxCell>
                <mxCell id="365" value="5" style="shape=cube;whiteSpace=wrap;html=1;boundedLbl=1;backgroundOutline=1;darkOpacity=0.05;darkOpacity2=0.1;size=10;rotation=90;fillColor=#FF0000;strokeWidth=2;horizontal=0;fontSize=20;fontStyle=1" vertex="1" parent="1">
                    <mxGeometry x="1400.6200000000001" y="663.7199999999998" width="30" height="25" as="geometry"/>
                </mxCell>
                <mxCell id="366" value="4" style="shape=cube;whiteSpace=wrap;html=1;boundedLbl=1;backgroundOutline=1;darkOpacity=0.05;darkOpacity2=0.1;size=10;rotation=90;horizontal=0;strokeWidth=2;fontSize=20;fillColor=#FF0000;fontStyle=1" vertex="1" parent="1">
                    <mxGeometry x="1400.6200000000001" y="643.7199999999998" width="30" height="25" as="geometry"/>
                </mxCell>
                <mxCell id="367" value="3" style="shape=cube;whiteSpace=wrap;html=1;boundedLbl=1;backgroundOutline=1;darkOpacity=0.05;darkOpacity2=0.1;size=10;rotation=90;fillColor=#FF0000;strokeWidth=2;horizontal=0;fontSize=20;fontStyle=1" vertex="1" parent="1">
                    <mxGeometry x="1400.6200000000001" y="623.7199999999998" width="30" height="25" as="geometry"/>
                </mxCell>
                <mxCell id="368" value="2" style="shape=cube;whiteSpace=wrap;html=1;boundedLbl=1;backgroundOutline=1;darkOpacity=0.05;darkOpacity2=0.1;size=10;rotation=90;horizontal=0;strokeWidth=2;fontSize=20;fillColor=#FF0000;fontStyle=1" vertex="1" parent="1">
                    <mxGeometry x="1398.1200000000001" y="601.2199999999998" width="35" height="25" as="geometry"/>
                </mxCell>
                <mxCell id="369" value="1" style="shape=cube;whiteSpace=wrap;html=1;boundedLbl=1;backgroundOutline=1;darkOpacity=0.05;darkOpacity2=0.1;size=10;rotation=90;horizontal=0;strokeWidth=2;fontSize=20;fillColor=#FF0000;fontStyle=1" vertex="1" parent="1">
                    <mxGeometry x="1400.6200000000001" y="583.7199999999998" width="30" height="25" as="geometry"/>
                </mxCell>
                <mxCell id="376" value="" style="shape=cube;whiteSpace=wrap;html=1;boundedLbl=1;backgroundOutline=1;darkOpacity=0.05;darkOpacity2=0.1;size=10;rotation=90;strokeWidth=2;fillColor=#0000FF;fontSize=20;" vertex="1" parent="1">
                    <mxGeometry x="1420.6200000000001" y="543.7199999999998" width="30" height="25" as="geometry"/>
                </mxCell>
                <mxCell id="378" value="0" style="shape=cube;whiteSpace=wrap;html=1;boundedLbl=1;backgroundOutline=1;darkOpacity=0.05;darkOpacity2=0.1;size=10;rotation=90;fillColor=#00FF00;strokeWidth=2;horizontal=0;fontSize=20;fontStyle=1" vertex="1" parent="1">
                    <mxGeometry x="1410.6200000000001" y="553.7199999999998" width="30" height="25" as="geometry"/>
                </mxCell>
                <mxCell id="379" value="0" style="shape=cube;whiteSpace=wrap;html=1;boundedLbl=1;backgroundOutline=1;darkOpacity=0.05;darkOpacity2=0.1;size=10;rotation=90;strokeWidth=2;fillColor=#FF0000;fontStyle=1;fontSize=20;horizontal=0;" vertex="1" parent="1">
                    <mxGeometry x="1400.6200000000001" y="563.7199999999996" width="30" height="25" as="geometry"/>
                </mxCell>
                <mxCell id="381" value="" style="shape=curlyBracket;whiteSpace=wrap;html=1;rounded=1;flipH=1;fillColor=none;rotation=-135;fontSize=20;strokeWidth=3;" vertex="1" parent="1">
                    <mxGeometry x="1397.72" y="487" width="20" height="90.86" as="geometry"/>
                </mxCell>
                <mxCell id="382" value="" style="shape=curlyBracket;whiteSpace=wrap;html=1;rounded=1;flipH=1;fillColor=none;rotation=-180;fontSize=20;strokeWidth=3;" vertex="1" parent="1">
                    <mxGeometry x="1368.1200000000001" y="576.8899999999999" width="20" height="181.71" as="geometry"/>
                </mxCell>
                <mxCell id="385" value="" style="endArrow=none;dashed=1;html=1;dashPattern=1 3;strokeWidth=2;rounded=1;fontSize=20;" edge="1" parent="1">
                    <mxGeometry width="50" height="50" relative="1" as="geometry">
                        <mxPoint x="1418.1200000000001" y="743.3500000000001" as="sourcePoint"/>
                        <mxPoint x="1418.34" y="695.5399999999997" as="targetPoint"/>
                    </mxGeometry>
                </mxCell>
                <mxCell id="386" value="" style="endArrow=none;dashed=1;html=1;dashPattern=1 3;strokeWidth=2;rounded=1;fontSize=20;" edge="1" parent="1">
                    <mxGeometry width="50" height="50" relative="1" as="geometry">
                        <mxPoint x="1433.1200000000001" y="729.6600000000001" as="sourcePoint"/>
                        <mxPoint x="1433.34" y="681.8499999999997" as="targetPoint"/>
                    </mxGeometry>
                </mxCell>
                <mxCell id="387" value="" style="endArrow=none;dashed=1;html=1;dashPattern=1 3;strokeWidth=2;rounded=1;fontSize=20;" edge="1" parent="1">
                    <mxGeometry width="50" height="50" relative="1" as="geometry">
                        <mxPoint x="1446.0800000000002" y="716.5299999999997" as="sourcePoint"/>
                        <mxPoint x="1446.3000000000004" y="668.7199999999998" as="targetPoint"/>
                    </mxGeometry>
                </mxCell>
                <mxCell id="421" value="Z" style="text;html=1;strokeColor=none;fillColor=none;align=center;verticalAlign=middle;whiteSpace=wrap;rounded=0;fontStyle=1;fontSize=20;" vertex="1" parent="1">
                    <mxGeometry x="1322.24" y="652.7499999999998" width="60" height="30" as="geometry"/>
                </mxCell>
                <mxCell id="422" value="C" style="text;html=1;strokeColor=none;fillColor=none;align=center;verticalAlign=middle;whiteSpace=wrap;rounded=0;fontStyle=1;fontSize=20;" vertex="1" parent="1">
                    <mxGeometry x="1381.74" y="500.29999999999995" width="25.5" height="30" as="geometry"/>
                </mxCell>
                <mxCell id="429" value="" style="shape=cube;whiteSpace=wrap;html=1;boundedLbl=1;backgroundOutline=1;darkOpacity=0.05;darkOpacity2=0.1;size=10;rotation=90;strokeWidth=2;fontSize=20;fillColor=#FF3399;" vertex="1" parent="1">
                    <mxGeometry x="1908.3899999999999" y="531.19" width="30" height="25" as="geometry"/>
                </mxCell>
                <mxCell id="431" value="0" style="shape=cube;whiteSpace=wrap;html=1;boundedLbl=1;backgroundOutline=1;darkOpacity=0.05;darkOpacity2=0.1;size=10;rotation=90;strokeWidth=2;horizontal=0;fontSize=20;fontStyle=1;fillColor=#7EA6E0;fontColor=none;noLabel=1;" vertex="1" parent="1">
                    <mxGeometry x="1898.3899999999999" y="541.19" width="30" height="25" as="geometry"/>
                </mxCell>
                <mxCell id="433" value="0" style="shape=cube;whiteSpace=wrap;html=1;boundedLbl=1;backgroundOutline=1;darkOpacity=0.05;darkOpacity2=0.1;size=10;rotation=90;strokeWidth=2;horizontal=0;fontSize=20;fontStyle=1;fillColor=#FFFF66;fontColor=none;noLabel=1;" vertex="1" parent="1">
                    <mxGeometry x="1888.3899999999999" y="551.1899999999998" width="30" height="25" as="geometry"/>
                </mxCell>
                <mxCell id="434" value="" style="endArrow=none;dashed=1;html=1;dashPattern=1 3;strokeWidth=2;rounded=1;fontSize=20;" edge="1" parent="1">
                    <mxGeometry width="50" height="50" relative="1" as="geometry">
                        <mxPoint x="1914.4999999999993" y="761.1" as="sourcePoint"/>
                        <mxPoint x="1914.7199999999996" y="713.2900000000001" as="targetPoint"/>
                        <Array as="points">
                            <mxPoint x="1914.4799999999998" y="745.0400000000001"/>
                        </Array>
                    </mxGeometry>
                </mxCell>
                <mxCell id="435" value="" style="endArrow=none;dashed=1;html=1;dashPattern=1 3;strokeWidth=2;rounded=1;fontSize=20;" edge="1" parent="1">
                    <mxGeometry width="50" height="50" relative="1" as="geometry">
                        <mxPoint x="1926.3999999999999" y="751.0999999999997" as="sourcePoint"/>
                        <mxPoint x="1926.6200000000001" y="703.2899999999997" as="targetPoint"/>
                        <Array as="points">
                            <mxPoint x="1926.3799999999999" y="735.04"/>
                        </Array>
                    </mxGeometry>
                </mxCell>
                <mxCell id="436" value="" style="endArrow=none;dashed=1;html=1;dashPattern=1 3;strokeWidth=2;rounded=1;fontSize=20;" edge="1" parent="1">
                    <mxGeometry width="50" height="50" relative="1" as="geometry">
                        <mxPoint x="1936.5499999999993" y="739.9999999999997" as="sourcePoint"/>
                        <mxPoint x="1936.7699999999995" y="692.1899999999993" as="targetPoint"/>
                        <Array as="points">
                            <mxPoint x="1936.5299999999997" y="723.9399999999999"/>
                        </Array>
                    </mxGeometry>
                </mxCell>
                <mxCell id="444" value="" style="shape=curlyBracket;whiteSpace=wrap;html=1;rounded=1;flipH=1;fillColor=none;rotation=-135;fontSize=20;strokeWidth=3;" vertex="1" parent="1">
                    <mxGeometry x="1886.88" y="492.84" width="20" height="61.75" as="geometry"/>
                </mxCell>
                <mxCell id="445" value="F" style="text;html=1;strokeColor=none;fillColor=none;align=center;verticalAlign=middle;whiteSpace=wrap;rounded=0;fontStyle=1;fontSize=20;" vertex="1" parent="1">
                    <mxGeometry x="1868.7499999999998" y="491.3300000000002" width="25.5" height="30" as="geometry"/>
                </mxCell>
                <mxCell id="447" value="" style="shape=curlyBracket;whiteSpace=wrap;html=1;rounded=1;flipH=1;fillColor=none;rotation=-180;fontSize=20;strokeWidth=3;" vertex="1" parent="1">
                    <mxGeometry x="1855.44" y="557.9699999999999" width="20" height="181.71" as="geometry"/>
                </mxCell>
                <mxCell id="448" value="Z" style="text;html=1;strokeColor=none;fillColor=none;align=center;verticalAlign=middle;whiteSpace=wrap;rounded=0;fontStyle=1;fontSize=20;" vertex="1" parent="1">
                    <mxGeometry x="1809.56" y="633.8299999999998" width="60" height="30" as="geometry"/>
                </mxCell>
                <mxCell id="449" value="" style="shape=cube;whiteSpace=wrap;html=1;boundedLbl=1;backgroundOutline=1;darkOpacity=0.05;darkOpacity2=0.1;size=10;rotation=90;strokeWidth=2;fillColor=#0000FF;strokeColor=#33001A;fontSize=19;" vertex="1" parent="1">
                    <mxGeometry x="1652.5599999999997" y="734.9699999999998" width="30" height="25" as="geometry"/>
                </mxCell>
                <mxCell id="450" value="" style="shape=cube;whiteSpace=wrap;html=1;boundedLbl=1;backgroundOutline=1;darkOpacity=0.05;darkOpacity2=0.1;size=10;rotation=90;strokeWidth=2;fillColor=#00FF00;fontSize=19;" vertex="1" parent="1">
                    <mxGeometry x="1642.5599999999997" y="744.9699999999998" width="30" height="25" as="geometry"/>
                </mxCell>
                <mxCell id="451" value="12" style="shape=cube;whiteSpace=wrap;html=1;boundedLbl=1;backgroundOutline=1;darkOpacity=0.05;darkOpacity2=0.1;size=10;rotation=90;strokeWidth=2;fillColor=#FF0000;fontStyle=1;horizontal=0;fontSize=12;" vertex="1" parent="1">
                    <mxGeometry x="1632.5599999999997" y="754.9699999999998" width="30" height="25" as="geometry"/>
                </mxCell>
            </root>
        </mxGraphModel>
    </diagram>
</mxfile>